<mxfile host="app.diagrams.net" agent="Mozilla/5.0 (Windows NT 10.0; Win64; x64) AppleWebKit/537.36 (KHTML, like Gecko) Chrome/135.0.0.0 Safari/537.36" version="26.2.13">
  <diagram name="Page-1" id="4iamxFY1r6eEONaubb5g">
    <mxGraphModel grid="1" page="1" gridSize="10" guides="1" tooltips="1" connect="1" arrows="1" fold="1" pageScale="1" pageWidth="827" pageHeight="1169" math="0" shadow="0">
      <root>
        <mxCell id="0" />
        <mxCell id="1" parent="0" />
        <mxCell id="YxwmL0asUBd9zIFQf94X-39" value="AWS Cloud" style="points=[[0,0],[0.25,0],[0.5,0],[0.75,0],[1,0],[1,0.25],[1,0.5],[1,0.75],[1,1],[0.75,1],[0.5,1],[0.25,1],[0,1],[0,0.75],[0,0.5],[0,0.25]];outlineConnect=0;gradientColor=none;html=1;whiteSpace=wrap;fontSize=12;fontStyle=0;container=1;pointerEvents=0;collapsible=0;recursiveResize=0;shape=mxgraph.aws4.group;grIcon=mxgraph.aws4.group_aws_cloud_alt;strokeColor=#232F3E;fillColor=none;verticalAlign=top;align=left;spacingLeft=30;fontColor=#232F3E;dashed=0;" vertex="1" parent="1">
          <mxGeometry x="30" y="30" width="780" height="870" as="geometry" />
        </mxCell>
        <mxCell id="YxwmL0asUBd9zIFQf94X-40" value="Region" style="points=[[0,0],[0.25,0],[0.5,0],[0.75,0],[1,0],[1,0.25],[1,0.5],[1,0.75],[1,1],[0.75,1],[0.5,1],[0.25,1],[0,1],[0,0.75],[0,0.5],[0,0.25]];outlineConnect=0;gradientColor=none;html=1;whiteSpace=wrap;fontSize=12;fontStyle=0;container=1;pointerEvents=0;collapsible=0;recursiveResize=0;shape=mxgraph.aws4.group;grIcon=mxgraph.aws4.group_region;strokeColor=#00A4A6;fillColor=none;verticalAlign=top;align=left;spacingLeft=30;fontColor=#147EBA;dashed=1;" vertex="1" parent="YxwmL0asUBd9zIFQf94X-39">
          <mxGeometry x="20" y="40" width="740" height="820" as="geometry" />
        </mxCell>
        <mxCell id="YxwmL0asUBd9zIFQf94X-41" value="Public subnet - Public A&lt;br&gt;10.0.0.0/24 - 2001:db8:86e3:4b00::/48" style="points=[[0,0],[0.25,0],[0.5,0],[0.75,0],[1,0],[1,0.25],[1,0.5],[1,0.75],[1,1],[0.75,1],[0.5,1],[0.25,1],[0,1],[0,0.75],[0,0.5],[0,0.25]];outlineConnect=0;gradientColor=none;html=1;whiteSpace=wrap;fontSize=12;fontStyle=0;container=1;pointerEvents=0;collapsible=0;recursiveResize=0;shape=mxgraph.aws4.group;grIcon=mxgraph.aws4.group_security_group;grStroke=0;strokeColor=#7AA116;fillColor=#F2F6E8;verticalAlign=top;align=left;spacingLeft=30;fontColor=#248814;dashed=0;" vertex="1" parent="YxwmL0asUBd9zIFQf94X-40">
          <mxGeometry x="60" y="181" width="260" height="259" as="geometry" />
        </mxCell>
        <mxCell id="YxwmL0asUBd9zIFQf94X-43" value="NAT&lt;br&gt;Gateway&lt;br&gt;(Subnet A)" style="sketch=0;outlineConnect=0;fontColor=#232F3E;gradientColor=none;fillColor=#8C4FFF;strokeColor=none;dashed=0;verticalLabelPosition=bottom;verticalAlign=top;align=center;html=1;fontSize=12;fontStyle=0;aspect=fixed;pointerEvents=1;shape=mxgraph.aws4.nat_gateway;" vertex="1" parent="YxwmL0asUBd9zIFQf94X-41">
          <mxGeometry x="21" y="159" width="40" height="40" as="geometry" />
        </mxCell>
        <mxCell id="YxwmL0asUBd9zIFQf94X-44" value="EC2 Instance&lt;br&gt;Connect&lt;br&gt;Endpoint" style="sketch=0;outlineConnect=0;fontColor=#232F3E;gradientColor=none;fillColor=#8C4FFF;strokeColor=none;dashed=0;verticalLabelPosition=bottom;verticalAlign=top;align=center;html=1;fontSize=12;fontStyle=0;aspect=fixed;pointerEvents=1;shape=mxgraph.aws4.elastic_network_interface;" vertex="1" parent="YxwmL0asUBd9zIFQf94X-41">
          <mxGeometry x="106.5" y="159" width="39" height="39" as="geometry" />
        </mxCell>
        <mxCell id="YxwmL0asUBd9zIFQf94X-45" value="Route Table&lt;br&gt;Public" style="sketch=0;outlineConnect=0;fontColor=#232F3E;gradientColor=none;fillColor=#8C4FFF;strokeColor=none;dashed=0;verticalLabelPosition=bottom;verticalAlign=top;align=center;html=1;fontSize=12;fontStyle=0;aspect=fixed;pointerEvents=1;shape=mxgraph.aws4.route_table;" vertex="1" parent="YxwmL0asUBd9zIFQf94X-41">
          <mxGeometry x="189.95" y="159" width="41.05" height="40" as="geometry" />
        </mxCell>
        <mxCell id="YxwmL0asUBd9zIFQf94X-47" value="&lt;font style=&quot;color: rgb(0, 0, 0);&quot;&gt;VPC&lt;br&gt;10.0.0.0/8 - 2001:db8:86e3:4b00::/56&amp;nbsp;&lt;/font&gt;" style="points=[[0,0],[0.25,0],[0.5,0],[0.75,0],[1,0],[1,0.25],[1,0.5],[1,0.75],[1,1],[0.75,1],[0.5,1],[0.25,1],[0,1],[0,0.75],[0,0.5],[0,0.25]];outlineConnect=0;gradientColor=none;html=1;whiteSpace=wrap;fontSize=12;fontStyle=0;container=1;pointerEvents=0;collapsible=0;recursiveResize=0;shape=mxgraph.aws4.group;grIcon=mxgraph.aws4.group_vpc2;strokeColor=#8C4FFF;fillColor=none;verticalAlign=top;align=left;spacingLeft=30;fontColor=#AAB7B8;dashed=0;" vertex="1" parent="YxwmL0asUBd9zIFQf94X-40">
          <mxGeometry x="20" y="60" width="700" height="750" as="geometry" />
        </mxCell>
        <mxCell id="YxwmL0asUBd9zIFQf94X-48" value="Availability Zone B" style="fillColor=none;strokeColor=#147EBA;dashed=1;verticalAlign=top;fontStyle=0;fontColor=#147EBA;whiteSpace=wrap;html=1;" vertex="1" parent="YxwmL0asUBd9zIFQf94X-47">
          <mxGeometry x="390" y="80" width="290" height="560" as="geometry" />
        </mxCell>
        <mxCell id="YxwmL0asUBd9zIFQf94X-49" value="Availability Zone A" style="fillColor=none;strokeColor=#147EBA;dashed=1;verticalAlign=top;fontStyle=0;fontColor=#147EBA;whiteSpace=wrap;html=1;" vertex="1" parent="YxwmL0asUBd9zIFQf94X-47">
          <mxGeometry x="21" y="80" width="290" height="560" as="geometry" />
        </mxCell>
        <mxCell id="YxwmL0asUBd9zIFQf94X-50" value="Public subnet - Public B&lt;br&gt;10.0.1.0/24 - 2001:db8:86e3:4b01::/48" style="points=[[0,0],[0.25,0],[0.5,0],[0.75,0],[1,0],[1,0.25],[1,0.5],[1,0.75],[1,1],[0.75,1],[0.5,1],[0.25,1],[0,1],[0,0.75],[0,0.5],[0,0.25]];outlineConnect=0;gradientColor=none;html=1;whiteSpace=wrap;fontSize=12;fontStyle=0;container=1;pointerEvents=0;collapsible=0;recursiveResize=0;shape=mxgraph.aws4.group;grIcon=mxgraph.aws4.group_security_group;grStroke=0;strokeColor=#7AA116;fillColor=#F2F6E8;verticalAlign=top;align=left;spacingLeft=30;fontColor=#248814;dashed=0;" vertex="1" parent="YxwmL0asUBd9zIFQf94X-47">
          <mxGeometry x="410" y="121" width="250" height="259" as="geometry" />
        </mxCell>
        <mxCell id="YxwmL0asUBd9zIFQf94X-53" value="EC2 Instance Connect&lt;br&gt;Endpoint Service" style="sketch=0;outlineConnect=0;fontColor=#232F3E;gradientColor=none;fillColor=#8C4FFF;strokeColor=none;dashed=0;verticalLabelPosition=bottom;verticalAlign=top;align=center;html=1;fontSize=12;fontStyle=0;aspect=fixed;pointerEvents=1;shape=mxgraph.aws4.endpoint;" vertex="1" parent="YxwmL0asUBd9zIFQf94X-47">
          <mxGeometry x="495" y="-20" width="40" height="40" as="geometry" />
        </mxCell>
        <mxCell id="YxwmL0asUBd9zIFQf94X-54" value="Egress-only&lt;br&gt;Internet Gateway&lt;br&gt;(IPv6)" style="sketch=0;outlineConnect=0;fontColor=#232F3E;gradientColor=none;fillColor=#8C4FFF;strokeColor=none;dashed=0;verticalLabelPosition=bottom;verticalAlign=top;align=center;html=1;fontSize=12;fontStyle=0;aspect=fixed;pointerEvents=1;shape=mxgraph.aws4.internet_gateway;" vertex="1" parent="YxwmL0asUBd9zIFQf94X-47">
          <mxGeometry x="380" y="-21" width="41" height="41" as="geometry" />
        </mxCell>
        <mxCell id="YxwmL0asUBd9zIFQf94X-55" value="Internet&lt;br&gt;Gateway" style="sketch=0;outlineConnect=0;fontColor=#232F3E;gradientColor=none;fillColor=#8C4FFF;strokeColor=none;dashed=0;verticalLabelPosition=bottom;verticalAlign=top;align=center;html=1;fontSize=12;fontStyle=0;aspect=fixed;pointerEvents=1;shape=mxgraph.aws4.internet_gateway;" vertex="1" parent="YxwmL0asUBd9zIFQf94X-47">
          <mxGeometry x="270" y="-20" width="41" height="41" as="geometry" />
        </mxCell>
        <mxCell id="YxwmL0asUBd9zIFQf94X-56" value="Route Table&lt;br&gt;Public" style="sketch=0;outlineConnect=0;fontColor=#232F3E;gradientColor=none;fillColor=#8C4FFF;strokeColor=none;dashed=0;verticalLabelPosition=bottom;verticalAlign=top;align=center;html=1;fontSize=12;fontStyle=0;aspect=fixed;pointerEvents=1;shape=mxgraph.aws4.route_table;" vertex="1" parent="YxwmL0asUBd9zIFQf94X-47">
          <mxGeometry x="604" y="280" width="41.05" height="40" as="geometry" />
        </mxCell>
        <mxCell id="YxwmL0asUBd9zIFQf94X-57" value="NAT&lt;br&gt;Gateway&lt;br&gt;(Subnet B)" style="sketch=0;outlineConnect=0;fontColor=#232F3E;gradientColor=none;fillColor=#8C4FFF;strokeColor=none;dashed=0;verticalLabelPosition=bottom;verticalAlign=top;align=center;html=1;fontSize=12;fontStyle=0;aspect=fixed;pointerEvents=1;shape=mxgraph.aws4.nat_gateway;" vertex="1" parent="YxwmL0asUBd9zIFQf94X-47">
          <mxGeometry x="434" y="280" width="40" height="40" as="geometry" />
        </mxCell>
        <mxCell id="YxwmL0asUBd9zIFQf94X-58" value="Private subnet - Private B&lt;br&gt;10.0.3.0/24 - 2001:db8:86e3:4b03::/48" style="points=[[0,0],[0.25,0],[0.5,0],[0.75,0],[1,0],[1,0.25],[1,0.5],[1,0.75],[1,1],[0.75,1],[0.5,1],[0.25,1],[0,1],[0,0.75],[0,0.5],[0,0.25]];outlineConnect=0;gradientColor=none;html=1;whiteSpace=wrap;fontSize=12;fontStyle=0;container=1;pointerEvents=0;collapsible=0;recursiveResize=0;shape=mxgraph.aws4.group;grIcon=mxgraph.aws4.group_security_group;grStroke=0;strokeColor=#00A4A6;fillColor=#E6F6F7;verticalAlign=top;align=left;spacingLeft=30;fontColor=#147EBA;dashed=0;" vertex="1" parent="YxwmL0asUBd9zIFQf94X-47">
          <mxGeometry x="410" y="399.5" width="250" height="230.5" as="geometry" />
        </mxCell>
        <mxCell id="YxwmL0asUBd9zIFQf94X-62" value="S3 Gateway&lt;br&gt;Endpoint" style="sketch=0;outlineConnect=0;fontColor=#232F3E;gradientColor=none;fillColor=#8C4FFF;strokeColor=none;dashed=0;verticalLabelPosition=bottom;verticalAlign=top;align=center;html=1;fontSize=12;fontStyle=0;aspect=fixed;pointerEvents=1;shape=mxgraph.aws4.endpoints;" vertex="1" parent="YxwmL0asUBd9zIFQf94X-47">
          <mxGeometry x="334" y="280" width="40" height="40" as="geometry" />
        </mxCell>
        <mxCell id="YxwmL0asUBd9zIFQf94X-63" value="Private subnet - Private A&lt;div&gt;10.0.2.0/24 - 2001:db8:86e3:4b02::/48&lt;/div&gt;" style="points=[[0,0],[0.25,0],[0.5,0],[0.75,0],[1,0],[1,0.25],[1,0.5],[1,0.75],[1,1],[0.75,1],[0.5,1],[0.25,1],[0,1],[0,0.75],[0,0.5],[0,0.25]];outlineConnect=0;gradientColor=none;html=1;whiteSpace=wrap;fontSize=12;fontStyle=0;container=1;pointerEvents=0;collapsible=0;recursiveResize=0;shape=mxgraph.aws4.group;grIcon=mxgraph.aws4.group_security_group;grStroke=0;strokeColor=#00A4A6;fillColor=#E6F6F7;verticalAlign=top;align=left;spacingLeft=30;fontColor=#147EBA;dashed=0;" vertex="1" parent="YxwmL0asUBd9zIFQf94X-47">
          <mxGeometry x="40" y="399.5" width="260" height="230.5" as="geometry" />
        </mxCell>
        <mxCell id="YxwmL0asUBd9zIFQf94X-66" value="Route Table&lt;br&gt;Private B" style="sketch=0;outlineConnect=0;fontColor=#232F3E;gradientColor=none;fillColor=#8C4FFF;strokeColor=none;dashed=0;verticalLabelPosition=bottom;verticalAlign=top;align=center;html=1;fontSize=12;fontStyle=0;aspect=fixed;pointerEvents=1;shape=mxgraph.aws4.route_table;" vertex="1" parent="YxwmL0asUBd9zIFQf94X-47">
          <mxGeometry x="604" y="548.5" width="41.05" height="40" as="geometry" />
        </mxCell>
        <mxCell id="YxwmL0asUBd9zIFQf94X-67" value="Route Table&lt;br&gt;Private A" style="sketch=0;outlineConnect=0;fontColor=#232F3E;gradientColor=none;fillColor=#8C4FFF;strokeColor=none;dashed=0;verticalLabelPosition=bottom;verticalAlign=top;align=center;html=1;fontSize=12;fontStyle=0;aspect=fixed;pointerEvents=1;shape=mxgraph.aws4.route_table;" vertex="1" parent="YxwmL0asUBd9zIFQf94X-47">
          <mxGeometry x="232.95" y="548.5" width="41.05" height="40" as="geometry" />
        </mxCell>
      </root>
    </mxGraphModel>
  </diagram>
</mxfile>
